M48
;Layer_Color=9474304
;FILE_FORMAT=2:4
INCH,TZ
;TYPE=PLATED
T1F00S00C0.0280
T2F00S00C0.0300
T3F00S00C0.0310
T4F00S00C0.0320
T5F00S00C0.0350
T6F00S00C0.0354
T7F00S00C0.0360
T8F00S00C0.0390
T9F00S00C0.0394
T10F00S00C0.0402
T11F00S00C0.0512
T13F00S00C0.1181
%
T01
X51270Y23170
X49970Y29250
X45243Y26857
X38425Y25275
X35050Y21850
X32820Y24050
X32020Y26440
X32310Y30500
X33160Y31220
X35350Y30950
X41700Y19950
X28250Y23600
X28900Y26200
X27734Y29316
X28031Y30480
X25220Y30664
X25506Y29750
X20500Y30760
X18500Y25900
X16400Y25600
X22015Y33907
X23200Y35770
X21880Y36885
X22040Y37530
X25900Y38390
X25670Y40125
X26650Y42250
X28350Y42400
X30961Y42730
X30040Y46300
X23680Y42250
X23161Y42740
X21640Y42460
X17265Y42300
X26330Y36500
X24660Y32685
X25260Y31320
X31350Y32550
X32540Y32050
X36600Y31400
X38680Y34320
X40900Y36575
X41870Y36690
X42550Y37840
X39160Y39890
X37255Y40070
X34870Y39840
X35200Y38780
X33252Y38125
X33700Y36500
X33000Y42250
X32050
X34640
X38680Y41950
X41140Y45500
X44600Y45150
X46400Y45250
X32250Y45785
X42200Y31560
X16650Y47000
T02
X48550Y15650
Y16650
Y17650
Y18650
Y19650
Y20650
Y21650
Y22650
Y23650
Y24650
Y25650
Y26650
Y27650
Y28650
Y29650
Y30650
X45450
X44450
X43450
Y29650
Y28650
Y27650
Y26650
Y25650
Y24650
Y23650
Y22650
X44450
X45450
X43450Y21650
Y20650
Y19650
Y18650
Y17650
Y16650
Y15650
X40450Y17600
X39450
X38450
X37450
X36450
X35450
X34450
X33450
Y22700
X34450
X35450
X36450
X37450
X38450
X39450
X40450
Y21700
Y20700
X36300Y28400
X35300
X34300
X33300
X32300
X31300
X30300
X29300
X28300
X27300
X26300
X25300
X24300
X23300
X22300
X21300
X20300
X19300
X18300
X17300
Y34500
X18300
X19300
X20300
X21300
X22300
X23300
X24300
X25300
X26300
X27300
X28300
X29300
X30300
X31300
X32300
X33300
X34300
X35300
X36300
X43450Y34650
Y35650
Y36650
Y37650
Y38650
X44450
X45450
X43450Y39650
Y40650
Y41650
Y42650
Y43650
Y44650
Y45650
Y46650
X44450
X45450
X43450Y33650
Y32650
Y31650
X48550
Y32650
Y33650
Y34650
Y35650
Y36650
Y37650
Y38650
Y39650
Y40650
Y41650
Y42650
Y43650
Y44650
Y45650
Y46650
T03
X21500Y15500
X23500
X33956Y24050
Y25600
X34006Y27075
X33955Y29800
X32555
X35355
X36755
X38155
X39555
X40905
X42305
X42205Y27400
X40605Y27450
X39055
X37455Y27500
Y24000
X39055Y23950
X40605
X42205Y23900
X30456Y24050
Y25600
X30506Y27075
X29905Y29800
X28655Y29750
X27256Y30400
X23756
X21800Y30350
X21850Y29450
X20550Y27350
X21250Y25610
Y23610
X17050Y27350
X17300Y30400
X18300Y30350
X18350Y29450
X18250Y17800
Y15800
X31205Y29750
X15350Y35550
X17350
X17300Y32400
X18450
X21950
X23756Y32550
X27256
X28655Y33250
X29905Y33300
X31205Y33250
X31161Y40870
X30161
X29161
X28161
X27161
X26161
X25161
X24161
X23161
X22161
X21161
X20161
Y43870
X21161
X22161
X23161
X24161
X25161
X26161
X27161
X28161
X29161
X30161
X31161
X32161
X33161
X34161
X35161
X36161
X37161
X38161
X39161
X40161
X41161
Y40870
X40161
X39161
X38161
X37161
X36161
X35161
X34161
X33161
X32161
X37495Y38900
X38745
X39945
X41145
X42395
Y35400
X41145
X39945
X38745
X37495
X38155Y33300
X39555
X40905
X42305
X36755
X35355
X33955
X32555
T04
X22150Y20700
X23650
X26000
X27500
X18200Y41300
Y42300
Y43300
T05
X32000Y21950
X30000
X31000Y19950
X30850Y35800
X29150
X27450
X25750
X24050
X22350
X20650
Y39300
X22350
X24050
X25750
X27450
X29150
X30850
X18750Y38250
X17750
X32450Y39300
X33850Y39250
Y35750
X32450Y35800
T06
X15150Y30350
Y31350
Y32350
Y33350
T07
X17350Y13650
X18360
X35250Y36450
X36260
T08
X20850Y18000
X21850
X22850
X25300
X26300
X27300
T09
X44824Y13157
X45808
X46792
X47776
X50443Y17674
Y18658
Y19642
Y20626
X50450Y25650
Y26634
Y27619
Y28603
X50500Y33666
Y34650
Y35634
Y36618
X50443Y41674
Y42658
Y43642
Y44626
T10
X16050Y37000
Y38000
Y39000
Y40000
Y41000
Y42000
Y43000
Y44000
Y45000
T11
X20669Y13189
X22047
X23425
X24803
X26181
X27559
X28937
X30315
X31693
X33071
X34449
X35827
X37205
X38583
X39961
X30856Y46850
X29478
X28100
X26722
X25344
X23966
X22588
X21210
X19832
X18454
X32233
X33611
X34989
X36367
X37745
X39123
X40501
X41879
T13
X15600Y13050
X50500Y13150
Y47100
X15600
M30
