M48
;Layer_Color=9474304
;FILE_FORMAT=4:4
METRIC
;TYPE=PLATED
T1F00S00C0.7112
T2F00S00C0.7620
T3F00S00C0.7874
T4F00S00C0.8128
T5F00S00C0.8890
T6F00S00C0.9000
T7F00S00C0.9144
T8F00S00C0.9906
T9F00S00C1.0000
T10F00S00C1.0200
T11F00S00C1.2000
T12F00S00C1.3000
T14F00S00C3.0000
%
T01
X00311150Y00320929
X00364490
X00441960Y00328549
X00497840Y00327279
X00542290Y00336169
X00593090Y00334899
X00644506Y00335553
X00645160Y00315849
X00688340Y00317119
X00689610Y00336169
X00906780Y00234569
Y00152019
Y00091059
X00908050Y00027559
X01085850Y00115189
Y00124460
X01253490Y00602869
X01254760Y00701929
X00949960Y00700659
X00935990Y00762889
X00926148Y00791146
X00974090Y00792099
X00966470Y00486029
X00871220
X00747544Y00482705
X00762000Y00440309
X00766640Y00591439
X00748030Y00604139
X00676910Y00620649
X00572770
X00557530Y00606679
X00441960Y00605409
X00444500Y00765429
X00496570
X00521970Y00767080
X00617220Y00768350
X00650240Y00764540
X00702310Y00765810
X00708660Y00817499
X00637540Y00891159
X00603250Y00903859
X00535940Y00905129
X00441960Y00886079
Y00794639
X00636270Y00948309
X00647700Y01042289
X00651510Y01152779
X00652780Y01178179
X00711200
X00857250Y01133834
X00914400Y01141349
X00934720Y01151509
X01019810Y01148969
X01055370Y01147699
X01053187Y01073126
X01020296Y01074823
X00935990Y01060069
X00915670
X00858520Y01058799
X00808990Y00816229
X01153160Y00940689
Y00967269
Y01003515
Y01033399
Y01074039
X01233170Y01078885
Y01034669
Y01005459
Y00968629
Y00940689
X01244600Y01240409
X01371600Y01239139
X01143000Y01208659
X01113790Y01231519
X01101090Y01253109
X01036320
Y01231519
X01037590Y01206119
X01046480Y01311529
X01087120
X00645160Y01319149
Y01275969
X00542290Y01420749
X00501650Y01419479
X00320040Y01270889
X00260350Y01269619
T02
X01024890Y00077089
X01035050
X01045210
Y00140589
X01035050
X01026160
X01085850Y00105029
X00773430Y00861949
X00748030
X00722630
X00697230
X00671830
X00646430
X00621030
Y01016889
X00646430
X00671830
X00697230
X00722630
X00748030
X00773430
X00798830
X00824230
X00849630
X00875030
X00900430
X00925830
X00951230
X00976630
X01002030
X01027430
X01052830
X01078230
X01103630
Y00861949
X01078230
X01052830
X01027430
X01002030
X00976630
X00951230
X00925830
X00900430
X00875030
X00849630
X00824230
X00798830
X01211580Y01342009
X01236980
X01262380
Y01471549
X01236980
X01211580
X01186180
X01160780
X01135380
X01109980
X01084580
Y01392809
Y01367409
Y01342009
X01109980
X01135380
X01160780
X01186180
X01003300
X00977900
X00952500
X00927100
X00901700
X00876300
X00850900
X00825500
Y01367409
Y01392809
Y01471549
X00850900
X00876300
X00901700
X00927100
X00952500
X00977900
X01003300
X00725170
X00699770
X00674370
X00648970
X00623570
X00598170
X00572770
X00547370
X00468630
X00443230
X00417830
Y01342009
X00443230
X00468630
X00547370
X00572770
X00598170
X00623570
X00648970
X00674370
X00699770
X00725170
X00547370Y01367409
Y01392809
X00392430Y01342009
X00367030
X00341630
X00316230
X00290830
Y01367409
Y01392809
Y01471549
X00316230
X00341630
X00367030
X00392430
T03
X00425574Y00220751
X00495300Y00224282
X00520700
Y00300482
X00495300
Y00363982
X00520700
X00601980Y00360299
Y00309651
Y00220751
X00699770Y00224282
X00725170
X00789940Y00220599
Y00309499
Y00360299
X00725170Y00363982
X00699770
Y00300482
X00725170
X00425574Y00309651
X00425450Y00360299
X00843280
X00913130Y00294259
X00963930
X01036320Y00298069
X01087120
X01153160
X01203960
X01113790Y00499108
Y00549907
X01056640Y00548382
Y00497582
X01028700Y00646049
Y00696849
X01094740Y00698119
Y00647319
X01159510Y00646049
Y00696849
X00843280Y00654939
Y00588899
Y00499999
Y00449199
Y00743839
X00789940
X00725170Y00740308
X00699770
Y00664108
X00725170
X00789940Y00654939
X00790064Y00589051
X00725170Y00579882
X00699770
Y00503682
X00725170
Y00440182
X00699770
X00789940Y00449199
X00790064Y00500151
X00603250Y00499999
X00601980Y00449199
X00520700Y00440182
X00495300
Y00503682
X00520700
Y00579882
X00495300
X00425574Y00589051
X00425450Y00654939
X00495300Y00664108
X00520700
Y00740308
X00495300
X00425450Y00743839
X00605790
Y00654939
X00603250Y00588899
X00656590Y00792099
X00745490
X00425574Y00500151
X00425450Y00449199
X00595630Y01162939
X00621030
X00711200Y01138809
X00800100
X00802640Y01204849
X00801370Y01272159
X00712470
X00713740Y01204849
X00621030Y01239139
X00595630
T04
X01040130Y00388239
X01078230
X01151890
X01189990
T05
X01268730Y01549019
X01319530Y01574419
X01268730Y01599819
T06
X00773430Y00106299
X00798830
X00824230
X00849630
T07
X00887730Y00765429
Y00791083
X01320800Y01471295
Y01496949
T08
X01183640Y00513969
Y00539369
Y00564769
T09
X01213320Y01559179
X01188320
X01163320
X01138320
X00950430Y01560449
X00925430
X00900430
X00875430
X00671430Y01564259
X00646430
X00621430
X00596430
X00415760Y01557909
X00390760
X00365760
X00340760
T10
X00833120Y01174369
X00858520
X00883920
X00909320
X00934720
X00960120
X00985520
X01010920
X01036320
T11
X00999490Y00503793
Y00541893
Y00579993
T12
X01336040Y00209169
Y00244169
Y00279169
X00337820Y00934339
Y00969339
Y01004339
Y01047369
Y01082369
Y01117369
Y01160959
X01281430Y01164919
Y01129919
Y01094919
Y01044269
Y01009269
Y00974269
X00337820Y01195959
Y01230959
T14
X00241300Y00041529
X01408430
X00242570Y01632839
X01405890Y01634109
M30
